<?xml version="1.0" encoding="utf-8"?>
<!-- Svg Vector Icons : http://www.onlinewebfonts.com/icon -->
<!DOCTYPE svg PUBLIC "-//W3C//DTD SVG 1.1//EN" "http://www.w3.org/Graphics/SVG/1.1/DTD/svg11.dtd">
<svg version="1.1" xmlns="http://www.w3.org/2000/svg" xmlns:xlink="http://www.w3.org/1999/xlink" x="0px" y="0px" viewBox="0 0 1000 1000" enable-background="new 0 0 1000 1000" xml:space="preserve">
<metadata> Svg Vector Icons : http://www.onlinewebfonts.com/icon </metadata>
<g><path d="M906.7,10H93.3C47.3,10,10,47.3,10,93.3v813.4c0,46,37.3,83.3,83.3,83.3h813.4c46,0,83.3-37.3,83.3-83.3V93.3C990,47.3,952.7,10,906.7,10z M929.3,906.7c0,12.4-10.1,22.6-22.6,22.6H93.3c-12.4,0-22.6-10.1-22.6-22.6V93.3c0-12.4,10.1-22.6,22.6-22.6h813.4c12.4,0,22.6,10.1,22.6,22.6V906.7z"/><path d="M408.1,255h-61.3v-61.3c0-16.9-13.7-30.6-30.6-30.6s-30.6,13.7-30.6,30.6V255h-61.2c-16.9,0-30.6,13.7-30.6,30.6c0,16.9,13.7,30.6,30.6,30.6h61.2v61.3c0,16.9,13.7,30.6,30.6,30.6c16.9,0,30.6-13.7,30.6-30.6v-61.3h61.3c16.9,0,30.6-13.7,30.6-30.6C438.8,268.7,425,255,408.1,255z"/><path d="M775.6,255H591.9c-16.9,0-30.6,13.7-30.6,30.6c0,16.9,13.7,30.6,30.6,30.6h183.8c16.9,0,30.6-13.7,30.6-30.6C806.3,268.7,792.5,255,775.6,255z"/><path d="M775.6,714.4H591.9c-16.9,0-30.6,13.7-30.6,30.6c0,16.9,13.7,30.6,30.6,30.6h183.8c16.9,0,30.6-13.7,30.6-30.6C806.3,728.1,792.5,714.4,775.6,714.4z"/><path d="M775.6,591.9H591.9c-16.9,0-30.6,13.7-30.6,30.6c0,16.9,13.7,30.6,30.6,30.6h183.8c16.9,0,30.6-13.7,30.6-30.6C806.3,605.6,792.5,591.9,775.6,591.9z"/><path d="M359.6,683.8l43.3-43.3c12-12,12-31.3,0-43.3c-12-12-31.4-12-43.3,0l-43.3,43.3l-43.3-43.3c-12-12-31.4-12-43.3,0c-12,12-12,31.4,0,43.3l43.3,43.3l-43.3,43.3c-12,12-12,31.3,0,43.3c12,12,31.3,12,43.3,0l43.3-43.3l43.3,43.3c12,12,31.3,12,43.3,0c12-12,12-31.3,0-43.3L359.6,683.8z"/></g>
</svg>